HIERARCHY
ROOT Hips
{
	OFFSET 0.000000 0.000000 0.000000
	CHANNELS 6 Xposition Yposition Zposition Xrotation Yrotation Zrotation
	JOINT LeftUpLeg_virtual
	{
		OFFSET 0.000000 0.000000 0.000000
		CHANNELS 3 Xrotation Yrotation Zrotation
		JOINT LeftUpLeg
		{
			OFFSET 13.026900 -6.336304 -1.092800
			CHANNELS 3 Xrotation Yrotation Zrotation
			JOINT LeftLeg
			{
				OFFSET 0.524474 -46.096886 9.782700
				CHANNELS 3 Xrotation Yrotation Zrotation
				JOINT LeftFoot
				{
					OFFSET -0.524474 -53.427422 -12.948200
					CHANNELS 3 Xrotation Yrotation Zrotation
					JOINT LeftToeBase
					{
						OFFSET 0.192200 -14.009700 16.364100
						CHANNELS 3 Xrotation Yrotation Zrotation
						JOINT LeftToe_End
						{
							OFFSET -1.784700 -0.561700 9.474800
							CHANNELS 3 Xrotation Yrotation Zrotation
							End Site
							{
								OFFSET 0 0 0
							}
						}
					}
				}
			}
		}
	}
	JOINT RightUpLeg_virtual
	{
		OFFSET 0.000000 0.000000 0.000000
		CHANNELS 3 Xrotation Yrotation Zrotation
		JOINT RightUpLeg
		{
			OFFSET -12.883000 -6.336304 -1.092800
			CHANNELS 3 Xrotation Yrotation Zrotation
			JOINT RightLeg
			{
				OFFSET -0.524587 -46.096825 9.782800
				CHANNELS 3 Xrotation Yrotation Zrotation
				JOINT RightFoot
				{
					OFFSET 0.524587 -53.427383 -12.948300
					CHANNELS 3 Xrotation Yrotation Zrotation
					JOINT RightToeBase
					{
						OFFSET -0.192200 -14.009700 16.364100
						CHANNELS 3 Xrotation Yrotation Zrotation
						JOINT RightToe_End
						{
							OFFSET 1.784700 -0.561700 9.474800
							CHANNELS 3 Xrotation Yrotation Zrotation
							End Site
							{
								OFFSET 0 0 0
							}
						}
					}
				}
			}
		}
	}
	JOINT Spine_virtual
	{
		OFFSET 0.000000 0.000000 0.000000
		CHANNELS 3 Xrotation Yrotation Zrotation
		JOINT Spine
		{
			OFFSET 0.072000 7.257294 -0.789700
			CHANNELS 3 Xrotation Yrotation Zrotation
			JOINT Spine1
			{
				OFFSET 0.000000 12.508769 -0.658067
				CHANNELS 3 Xrotation Yrotation Zrotation
				JOINT Spine1_split
				{
					OFFSET 0.000000 12.508769 -0.658067
					CHANNELS 3 Xrotation Yrotation Zrotation
					JOINT Spine2
					{
						OFFSET 0.000000 12.508769 -0.658067
						CHANNELS 3 Xrotation Yrotation Zrotation
						JOINT Neck_virtual
						{
							OFFSET 0.000000 0.000000 0.000000
							CHANNELS 3 Xrotation Yrotation Zrotation
							JOINT Neck
							{
								OFFSET 0.000000 14.033295 7.520400
								CHANNELS 3 Xrotation Yrotation Zrotation
								JOINT Head
								{
									OFFSET 0.000000 8.198502 5.703100
									CHANNELS 3 Xrotation Yrotation Zrotation
									JOINT HeadTop_End
									{
										OFFSET 0.000000 17.760803 13.332701
										CHANNELS 3 Xrotation Yrotation Zrotation
										End Site
										{
											OFFSET 0 0 0
										}
									}
								}
							}
						}
						JOINT LeftShoulder_virtual
						{
							OFFSET 0.000000 0.000000 0.000000
							CHANNELS 3 Xrotation Yrotation Zrotation
							JOINT LeftShoulder
							{
								OFFSET 6.292450 5.785301 -0.669000
								CHANNELS 3 Xrotation Yrotation Zrotation
								JOINT LeftShoulder_split
								{
									OFFSET 6.292450 5.785301 -0.669000
									CHANNELS 3 Xrotation Yrotation Zrotation
									JOINT LeftArm
									{
										OFFSET 13.907140 -6.093903 1.965100
										CHANNELS 3 Xrotation Yrotation Zrotation
										JOINT LeftForeArm
										{
											OFFSET 34.140198 0.000000 0.000000
											CHANNELS 3 Xrotation Yrotation Zrotation
											JOINT LeftHand
											{
												OFFSET 40.960209 0.000000 0.000000
												CHANNELS 3 Xrotation Yrotation Zrotation
												End Site
												{
													OFFSET 0 0 0
												}
											}
										}
									}
								}
							}
						}
						JOINT RightShoulder_virtual
						{
							OFFSET 0.000000 0.000000 0.000000
							CHANNELS 3 Xrotation Yrotation Zrotation
							JOINT RightShoulder
							{
								OFFSET -6.292450 5.785301 -0.669000
								CHANNELS 3 Xrotation Yrotation Zrotation
								JOINT RightShoulder_split
								{
									OFFSET -6.292450 5.785301 -0.669000
									CHANNELS 3 Xrotation Yrotation Zrotation
									JOINT RightArm
									{
										OFFSET -13.907140 -6.093903 1.965100
										CHANNELS 3 Xrotation Yrotation Zrotation
										JOINT RightForeArm
										{
											OFFSET -34.140198 0.000000 0.000000
											CHANNELS 3 Xrotation Yrotation Zrotation
											JOINT RightHand
											{
												OFFSET -40.960209 0.000000 0.000000
												CHANNELS 3 Xrotation Yrotation Zrotation
												End Site
												{
													OFFSET 0 0 0
												}
											}
										}
									}
								}
							}
						}
					}
				}
			}
		}
	}
}
MOTION
Frames: 5
Frame Time: 0.03333333
10.921225 112.192528 14.691793 0.000000 0.000000 0.000000 -1.913545 6.757403 -5.511023 3.503683 9.660674 10.257062 19.330670 -5.778364 0.076868 -18.611282 3.433145 1.082088 -3.212529 -0.692240 0.322119 0.000000 0.000000 0.000000 -1.347604 6.767497 -5.843938 -39.638856 -7.534887 -4.938357 31.410022 -2.287305 -1.396703 7.733169 3.671096 5.449174 1.313920 0.622425 1.160667 0.000000 0.000000 0.000000 -1.490055 6.175788 -5.700460 12.054282 -0.511513 3.835325 0.286829 -1.656128 0.915477 0.890143 -0.512836 0.351828 0.000000 0.000000 0.000000 -3.073685 -1.568534 1.100964 -1.581378 -1.215247 5.289466 -3.894377 0.307615 -4.813725 0.000000 0.000000 0.000000 -3.406045 -1.754840 1.009069 0.497161 -1.742439 -2.834705 -1.115620 -0.046189 0.219617 -0.583601 -11.329084 -74.123767 10.646425 -11.972243 -3.612085 0.000000 0.000000 0.000000 -3.402923 -1.899032 1.044102 2.572021 0.277002 7.845897 -3.727175 0.692943 -1.866672 2.529381 10.146651 71.416957 11.054743 18.546988 3.775598 0.000000 0.000000 0.000000 
11.216864 111.537857 17.281775 0.000000 0.000000 0.000000 -1.751715 7.095136 -5.923788 5.835056 9.552742 10.275604 18.480972 -6.534281 0.505874 -19.712249 3.614224 0.589920 -4.032921 -0.768697 0.248439 0.000000 0.000000 0.000000 -1.052051 6.800663 -6.312132 -41.361064 -6.963420 -4.672856 25.909894 -0.713366 -1.796658 9.251021 4.374882 6.450420 2.216623 -0.371415 0.669020 0.000000 0.000000 0.000000 -1.198768 6.345350 -6.007028 11.965581 -0.725281 3.960106 0.126546 -1.816129 1.000877 0.874078 -0.520097 0.371425 0.000000 0.000000 0.000000 -3.183952 -1.694462 1.190611 -1.855807 -1.277310 5.164921 -4.282585 0.151634 -5.482277 0.000000 0.000000 0.000000 -3.564224 -1.861222 1.013269 0.509606 -1.847365 -2.815432 -1.043784 0.191035 0.338013 -1.096464 -12.123244 -73.957766 10.713252 -12.507545 -4.074539 0.000000 0.000000 0.000000 -3.413888 -1.989296 1.125394 2.690319 -0.380584 7.898033 -3.700829 0.444121 -2.050512 2.644114 10.433560 71.230410 10.776219 18.024664 4.755132 0.000000 0.000000 0.000000 
11.394810 110.930359 19.971310 0.000000 0.000000 0.000000 -1.573900 7.511347 -6.299453 8.005180 9.189056 10.519893 17.684430 -7.067396 0.912792 -20.314803 4.008163 0.256751 -4.374950 -0.851956 0.028617 0.000000 0.000000 0.000000 -0.835556 7.147688 -6.762711 -42.881437 -6.356336 -4.496363 21.345031 0.747363 -2.019584 11.235339 5.039254 6.902644 2.300015 -1.326441 0.294094 0.000000 0.000000 0.000000 -0.990218 6.499224 -6.319513 12.119500 -1.143126 3.918773 -0.052626 -2.039991 1.230122 0.733580 -0.406271 0.364402 0.000000 0.000000 0.000000 -3.311057 -1.902680 1.434594 -2.280120 -1.304655 4.898781 -4.723361 -0.045834 -6.067758 0.000000 0.000000 0.000000 -3.748841 -2.042594 1.178820 0.504002 -1.991034 -3.090357 -1.129913 0.514974 0.301854 -1.257208 -13.074419 -73.563733 10.797467 -12.815242 -4.482053 0.000000 0.000000 0.000000 -3.515327 -2.164651 1.342612 2.798387 -0.953371 7.747178 -3.657352 0.413735 -2.156237 2.881874 10.872938 71.331197 10.402746 17.650488 5.492315 0.000000 0.000000 0.000000 
11.441910 110.346817 22.754616 0.000000 0.000000 0.000000 -1.399341 7.915968 -6.667490 10.207961 8.718607 11.017490 16.801372 -7.330201 1.304386 -20.776713 4.586182 -0.035880 -4.085684 -0.957338 -0.245632 0.000000 0.000000 0.000000 -0.739759 7.676181 -7.170690 -44.364835 -5.889220 -4.433014 17.919898 1.736163 -2.075550 13.227675 5.362856 6.452881 2.226268 -2.109091 0.120787 0.000000 0.000000 0.000000 -0.866760 6.550105 -6.633668 12.453687 -1.638124 3.771417 -0.247158 -2.291443 1.530178 0.646053 -0.133586 0.309818 0.000000 0.000000 0.000000 -3.418358 -2.156013 1.749638 -2.856588 -1.318294 4.581772 -5.209743 -0.275807 -6.513899 0.000000 0.000000 0.000000 -3.930320 -2.270047 1.440511 0.477678 -2.108852 -3.555570 -1.335789 0.781847 0.217109 -1.119849 -14.123714 -73.036661 10.877618 -13.045693 -4.807545 0.000000 0.000000 0.000000 -3.668757 -2.395070 1.620743 2.855507 -1.443816 7.438587 -3.587099 0.601398 -2.109753 3.166010 11.356035 71.715265 9.948930 17.540733 5.990347 0.000000 0.000000 0.000000 
11.346022 109.682495 25.634193 0.000000 0.000000 0.000000 -1.263412 8.326760 -6.982528 12.421349 8.411918 11.707901 15.642224 -7.588932 1.613263 -21.214559 5.160494 -0.964114 -4.081167 -1.150473 -0.280114 0.000000 0.000000 0.000000 -0.736601 8.247432 -7.487426 -45.818326 -5.660149 -4.537231 16.034093 2.217370 -1.973338 15.186825 5.334204 5.292640 2.173768 -2.604346 0.116271 0.000000 0.000000 0.000000 -0.897689 6.490031 -6.843144 12.919326 -2.078218 3.606076 -0.460585 -2.519468 1.812230 0.550337 0.357321 0.160529 0.000000 0.000000 0.000000 -3.501730 -2.401978 2.029446 -3.531702 -1.316758 4.298718 -5.671748 -0.503967 -6.805485 0.000000 0.000000 0.000000 -4.081611 -2.489161 1.697838 0.442931 -2.127663 -4.073083 -1.543620 0.714709 0.129716 -0.853902 -15.130870 -72.528618 10.938073 -13.377335 -5.043176 0.000000 0.000000 0.000000 -3.819914 -2.621297 1.861631 2.869290 -1.867991 7.074617 -3.482304 0.921527 -1.881136 3.332591 11.689996 72.287608 9.436633 17.718334 6.303148 0.000000 0.000000 0.000000 
